<svg width="16" height="16" viewBox="0 0 16 16" fill="none" xmlns="http://www.w3.org/2000/svg">
<path fill-rule="evenodd" clip-rule="evenodd" d="M14.9548 10.0514C15.2645 10.0746 15.4963 10.3454 15.473 10.6551L15.3305 12.5369C15.2128 14.0894 13.9025 15.3051 12.3463 15.3051H3.64627C2.09002 15.3051 0.779769 14.0894 0.662019 12.5369L0.519519 10.6551C0.496269 10.3454 0.728769 10.0746 1.03852 10.0514C1.34977 10.0401 1.61827 10.2599 1.64227 10.5704L1.78402 12.4514C1.85752 13.4204 2.67502 14.1801 3.64627 14.1801H12.3463C13.3175 14.1801 14.1358 13.4204 14.2085 12.4514L14.351 10.5704C14.375 10.2599 14.6503 10.0394 14.9548 10.0514ZM8.96392 0.500061C10.0911 0.500061 11.025 1.34476 11.1656 2.43433L12.6427 2.43499C14.2147 2.43499 15.4927 3.71674 15.4927 5.29324V7.87249C15.4927 8.07274 15.3862 8.25724 15.2145 8.35774C13.3633 9.44186 11.0182 10.0742 8.55865 10.1585L8.55892 11.5075C8.55892 11.818 8.30692 12.07 7.99642 12.07C7.68592 12.07 7.43392 11.818 7.43392 11.5075L7.43343 10.1587C4.97638 10.0751 2.63111 9.44267 0.778494 8.35774C0.605994 8.25724 0.500244 8.07274 0.500244 7.87249V5.28574C0.500244 3.71374 1.78199 2.43499 3.35774 2.43499L4.82723 2.43433C4.96788 1.34476 5.90171 0.500061 7.02892 0.500061H8.96392ZM12.6427 3.55999H3.35774C2.40224 3.55999 1.62524 4.33399 1.62524 5.28574V7.54474C3.40553 8.51205 5.64992 9.04222 7.98599 9.04323L7.99642 9.04226L8.00474 9.04256L8.36186 9.03884C10.5712 8.98621 12.6788 8.46203 14.3677 7.54474V5.29324C14.3677 4.33699 13.5945 3.55999 12.6427 3.55999ZM8.96392 1.62506H7.02892C6.52391 1.62506 6.09761 1.96877 5.97168 2.43452H10.0212C9.89522 1.96877 9.46893 1.62506 8.96392 1.62506Z" fill="#666666"/>
</svg>
