<svg width="18" height="18" viewBox="0 0 18 18" fill="none" xmlns="http://www.w3.org/2000/svg">
<path d="M12.6296 4.34798C12.9144 4.34798 13.1497 4.55959 13.1869 4.83415L13.1921 4.91048L13.192 13.7605L15.2892 11.6549C15.5083 11.4347 15.8645 11.4339 16.0847 11.6531C16.2848 11.8523 16.3037 12.1648 16.1408 12.3853L16.0865 12.4486L13.0282 15.5211C13.0097 15.5392 12.991 15.5556 12.9712 15.5708L13.0282 15.5211C13.0006 15.5488 12.9708 15.573 12.9394 15.5938C12.9285 15.6006 12.9171 15.6076 12.9054 15.6141C12.8946 15.6206 12.8837 15.6264 12.8725 15.6317C12.8615 15.6366 12.8504 15.6415 12.8391 15.646C12.8247 15.6522 12.8099 15.6574 12.795 15.6619C12.7862 15.6643 12.7772 15.6668 12.7681 15.6691C12.7519 15.6736 12.7357 15.6769 12.7193 15.6796C12.7116 15.6804 12.7036 15.6815 12.6955 15.6825C12.677 15.685 12.6587 15.6863 12.6404 15.6866C12.6368 15.6863 12.6332 15.6863 12.6296 15.6863L12.6186 15.6866C12.6003 15.6863 12.582 15.685 12.5637 15.6829L12.6296 15.6863C12.5989 15.6863 12.5689 15.6839 12.5396 15.6791C12.5233 15.6769 12.5071 15.6736 12.4909 15.6695C12.4824 15.6669 12.4738 15.6645 12.4654 15.662C12.4493 15.6575 12.4332 15.6518 12.4174 15.6454C12.4088 15.6414 12.4005 15.6378 12.3922 15.6339C12.3793 15.6284 12.3663 15.6217 12.3535 15.6145C12.342 15.6075 12.3307 15.6006 12.3196 15.5933C12.3109 15.5881 12.3024 15.5821 12.294 15.5758L12.288 15.5708C12.2682 15.5556 12.2494 15.5392 12.2318 15.5216L12.2308 15.5211L9.1725 12.4486C8.95334 12.2284 8.95416 11.8722 9.17434 11.6531C9.3745 11.4538 9.68704 11.4364 9.90687 11.6003L9.96983 11.6549L12.067 13.762L12.0671 4.91048C12.0671 4.59982 12.3189 4.34798 12.6296 4.34798ZM5.18325 2.31281L5.19421 2.3125C5.21254 2.31285 5.23085 2.31409 5.24908 2.31623L5.18325 2.31281C5.21389 2.31281 5.24396 2.31526 5.27328 2.31998C5.28931 2.32217 5.3054 2.32548 5.32136 2.3295C5.33073 2.33225 5.3403 2.33494 5.34975 2.33786C5.36452 2.34203 5.37882 2.34709 5.39293 2.35274C5.40313 2.35729 5.41346 2.3618 5.42362 2.36661C5.4357 2.37184 5.4476 2.37798 5.45931 2.38458C5.46933 2.39075 5.47926 2.39677 5.48898 2.40307C5.49898 2.40902 5.50899 2.41598 5.51882 2.4233L5.582 2.47807L8.64033 5.55057C8.85949 5.77074 8.85867 6.1269 8.63849 6.34606C8.43833 6.5453 8.12579 6.56273 7.90596 6.39883L7.843 6.34422L5.74525 4.23625L5.74575 13.0886C5.74575 13.3993 5.49391 13.6511 5.18325 13.6511C4.89848 13.6511 4.66313 13.4395 4.62588 13.165L4.62075 13.0886L4.62025 4.237L2.52367 6.34422C2.32443 6.54438 2.01197 6.56326 1.79139 6.40038L1.72817 6.34606C1.52801 6.14682 1.50914 5.83437 1.67202 5.61378L1.72633 5.55057L4.78467 2.47807L4.81779 2.4477C4.82557 2.44104 4.83353 2.4346 4.84167 2.42837L4.78467 2.47807C4.81226 2.45035 4.84202 2.4261 4.87341 2.40534C4.88436 2.39852 4.89574 2.39155 4.90738 2.38499C4.91819 2.37848 4.92917 2.37276 4.9403 2.36743C4.95128 2.36257 4.96242 2.35767 4.97375 2.35312C4.98814 2.34697 5.00289 2.34176 5.0178 2.33718C5.02687 2.33475 5.03616 2.33215 5.04555 2.32979C5.06066 2.32564 5.07593 2.32247 5.09129 2.31993C5.10053 2.31878 5.10959 2.31752 5.11871 2.31648C5.13607 2.31409 5.15388 2.31288 5.17171 2.31251C5.17564 2.31285 5.17944 2.31281 5.18325 2.31281Z" fill="#666666"/>
</svg>