
<svg width="14" height="16" viewBox="0 0 14 16" fill="none" xmlns="http://www.w3.org/2000/svg">
<path fill-rule="evenodd" clip-rule="evenodd" d="M9.93151 0.5C12.2895 0.5 13.8735 2.11475 13.8735 4.51775V11.4147C13.8735 13.8387 12.3383 15.4152 9.96226 15.4302L4.19251 15.4325C1.83451 15.4325 0.249756 13.8177 0.249756 11.4147V4.51775C0.249756 2.093 1.78501 0.51725 4.16101 0.503L9.93076 0.5H9.93151ZM9.93151 1.625L4.16476 1.628C2.41876 1.6385 1.37476 2.7185 1.37476 4.51775V11.4147C1.37476 13.226 2.42851 14.3075 4.19176 14.3075L9.95851 14.3052C11.7045 14.2947 12.7485 13.2132 12.7485 11.4147V4.51775C12.7485 2.7065 11.6955 1.625 9.93151 1.625ZM9.78683 10.6053C10.0973 10.6053 10.3493 10.8573 10.3493 11.1678C10.3493 11.4783 10.0973 11.7303 9.78683 11.7303H4.37183C4.06133 11.7303 3.80933 11.4783 3.80933 11.1678C3.80933 10.8573 4.06133 10.6053 4.37183 10.6053H9.78683ZM9.78683 7.4654C10.0973 7.4654 10.3493 7.7174 10.3493 8.0279C10.3493 8.3384 10.0973 8.5904 9.78683 8.5904H4.37183C4.06133 8.5904 3.80933 8.3384 3.80933 8.0279C3.80933 7.7174 4.06133 7.4654 4.37183 7.4654H9.78683ZM6.43786 4.3328C6.74836 4.3328 7.00036 4.5848 7.00036 4.8953C7.00036 5.2058 6.74836 5.4578 6.43786 5.4578H4.37161C4.06111 5.4578 3.80911 5.2058 3.80911 4.8953C3.80911 4.5848 4.06111 4.3328 4.37161 4.3328H6.43786Z" fill="#666666"/>
</svg>
