<svg width="18" height="18" viewBox="0 0 18 18" fill="none" xmlns="http://www.w3.org/2000/svg">
<path fill-rule="evenodd" clip-rule="evenodd" d="M10.2876 11.4684C11.1906 11.4684 11.9256 12.1982 11.9256 13.0952V15.4022C11.9256 15.5949 12.0801 15.7494 12.2781 15.7539H13.7076C14.8341 15.7539 15.7498 14.8494 15.7498 13.7379V7.19494C15.7446 6.81244 15.5623 6.45244 15.2496 6.21319L10.3048 2.26969C9.64107 1.74394 8.71257 1.74394 8.04657 2.27119L3.13557 6.21169C2.81082 6.45844 2.62857 6.81844 2.62482 7.20769V13.7379C2.62482 14.8494 3.54057 15.7539 4.66707 15.7539H6.11007C6.31332 15.7539 6.47832 15.5927 6.47832 15.3947C6.47832 15.3512 6.48357 15.3077 6.49257 15.2664V13.0952C6.49257 12.2034 7.22307 11.4744 8.11932 11.4684H10.2876ZM13.7076 16.8789H12.2646C11.4381 16.8594 10.8006 16.2107 10.8006 15.4022V13.0952C10.8006 12.8184 10.5703 12.5934 10.2876 12.5934H8.12307C7.84632 12.5949 7.61757 12.8207 7.61757 13.0952V15.3947C7.61757 15.4509 7.61007 15.5049 7.59432 15.5559C7.51332 16.2984 6.87882 16.8789 6.11007 16.8789H4.66707C2.92032 16.8789 1.49982 15.4697 1.49982 13.7379V7.20244C1.50732 6.45694 1.85082 5.77444 2.44407 5.32519L7.34532 1.39144C8.42457 0.536438 9.92832 0.536438 11.0053 1.38994L15.9418 5.32744C16.5216 5.76919 16.8651 6.45019 16.8748 7.18669V13.7379C16.8748 15.4697 15.4543 16.8789 13.7076 16.8789Z" fill="#666666"/>
</svg>
