
<svg width="16" height="15" viewBox="0 0 16 15" fill="none" xmlns="http://www.w3.org/2000/svg">
<path fill-rule="evenodd" clip-rule="evenodd" d="M4.52549 3.79937C4.83599 3.79937 5.08799 4.05137 5.08799 4.36187C5.08799 4.67237 4.83599 4.92437 4.52549 4.92437H3.81974C2.60924 4.92437 1.62524 5.90762 1.62524 7.11737V10.7811C1.62524 11.9954 2.61224 12.9824 3.82649 12.9824H12.1815C13.3905 12.9824 14.3752 11.9976 14.3752 10.7886V7.12562C14.3752 5.91137 13.3875 4.92437 12.1747 4.92437H11.4757C11.1652 4.92437 10.9132 4.67237 10.9132 4.36187C10.9132 4.05137 11.1652 3.79937 11.4757 3.79937H12.1747C14.0085 3.79937 15.5002 5.29187 15.5002 7.12562V10.7886C15.5002 12.6186 14.0107 14.1074 12.1815 14.1074H3.82649C1.99274 14.1074 0.500244 12.6156 0.500244 10.7811V7.11737C0.500244 5.28737 1.98899 3.79937 3.81974 3.79937H4.52549ZM8.00084 0.25C8.31134 0.25 8.56334 0.502 8.56334 0.8125L8.56274 8.482L9.78959 7.2505C10.0086 7.03 10.3641 7.03 10.5846 7.249C10.8043 7.468 10.8051 7.82425 10.5861 8.04475L8.40415 10.2352C8.38284 10.2572 8.35977 10.2773 8.33516 10.2956L8.39909 10.24C8.37494 10.2645 8.34873 10.2865 8.32086 10.3058C8.30386 10.3176 8.28657 10.3282 8.26871 10.3379C8.26009 10.3426 8.25105 10.3472 8.2419 10.3516C8.22554 10.3593 8.20874 10.3664 8.19156 10.3726C8.18295 10.3756 8.17435 10.3785 8.16568 10.3811C8.14456 10.3877 8.12283 10.3929 8.10066 10.3969C8.09567 10.3977 8.09112 10.3985 8.08655 10.3992C8.06867 10.402 8.05 10.4039 8.03109 10.4049C8.02089 10.4055 8.01088 10.4057 8.00084 10.4057L7.97099 10.4035L7.92455 10.4006C7.92124 10.4002 7.91794 10.3997 7.91465 10.3992L8.00084 10.4057C7.96733 10.4057 7.93408 10.4028 7.90147 10.3969C7.87891 10.3929 7.85724 10.3877 7.8361 10.3812C7.82765 10.3785 7.81935 10.3758 7.81113 10.3729C7.79389 10.3667 7.77687 10.3597 7.76029 10.3518C7.75023 10.347 7.74021 10.3419 7.73035 10.3365C7.7165 10.3289 7.70314 10.3208 7.69017 10.3122C7.68128 10.3063 7.67239 10.3 7.66367 10.2934C7.64225 10.2774 7.62203 10.2598 7.60316 10.2409L7.60259 10.24L5.41559 8.04475C5.19659 7.82425 5.19734 7.468 5.41709 7.249C5.63759 7.03 5.99309 7.03 6.21209 7.2505L7.43774 8.482L7.43834 0.8125C7.43834 0.502 7.69034 0.25 8.00084 0.25Z" fill="#666666"/>
</svg>
