<svg width="30" height="24" viewBox="0 0 30 24" fill="none" xmlns="http://www.w3.org/2000/svg">
<path d="M24.4041 20.8684V13.1991L15.1061 21.9902L15.0373 22.0553L14.9686 21.9901L12.101 19.2688L12.0698 19.2392V19.1963V15.2393L0.284863 4.02319L0.253803 3.99363V3.95075V1V0.767246L0.422638 0.927462L15.0374 14.7962L29.6177 0.96025L29.7865 0.800033V1.03279V22.9995V23.1487L29.6485 23.0919L24.466 20.9608L24.4041 20.9354V20.8684Z" fill="white" stroke="white" stroke-width="0.2"/>
<path d="M0.407657 23.1401L0.204627 23.2168V22.9998V5.22974V4.8806L0.457879 5.12093L11.341 15.4485L11.3878 15.4929V15.5574V18.3114V18.662L11.1342 18.4199L5.72164 13.2523V21.0281V21.1318L5.62466 21.1684L0.407657 23.1401Z" fill="#FF9054" stroke="#FF9054" stroke-width="0.3"/>
</svg>
