<svg width="30" height="24" viewBox="0 0 30 24" fill="none" xmlns="http://www.w3.org/2000/svg">
<path d="M5.63646 20.8684V13.1991L14.9344 21.9902L15.0032 22.0553L15.0719 21.9901L17.9396 19.2688L17.9707 19.2392V19.1963V15.2393L29.7557 4.02319L29.7867 3.99363V3.95075V1V0.767246L29.6179 0.927462L15.0031 14.7962L0.422839 0.96025L0.254004 0.800033V1.03279V22.9995V23.1487L0.392035 23.0919L5.57449 20.9608L5.63646 20.9354V20.8684Z" fill="white" stroke="white" stroke-width="0.2"/>
<path d="M29.6329 23.1401L29.8359 23.2168V22.9998V5.22974V4.8806L29.5826 5.12093L18.6995 15.4485L18.6527 15.4929V15.5574V18.3114V18.662L18.9063 18.4199L24.3189 13.2523V21.0281V21.1318L24.4159 21.1684L29.6329 23.1401Z" fill="#FF9054" stroke="#FF9054" stroke-width="0.3"/>
</svg>
