
<svg width="16" height="16" viewBox="0 0 16 16" fill="none" xmlns="http://www.w3.org/2000/svg">
<path fill-rule="evenodd" clip-rule="evenodd" d="M14.9548 10.0513C15.2645 10.0746 15.4963 10.3453 15.473 10.6551L15.3305 12.5368C15.2128 14.0893 13.9025 15.3051 12.3463 15.3051H3.64627C2.09002 15.3051 0.779769 14.0893 0.662019 12.5368L0.519519 10.6551C0.496269 10.3453 0.728769 10.0746 1.03852 10.0513C1.34977 10.0401 1.61827 10.2598 1.64227 10.5703L1.78402 12.4513C1.85752 13.4203 2.67502 14.1801 3.64627 14.1801H12.3463C13.3175 14.1801 14.1358 13.4203 14.2085 12.4513L14.351 10.5703C14.375 10.2598 14.6503 10.0393 14.9548 10.0513ZM8.96392 0.5C10.0911 0.5 11.025 1.3447 11.1656 2.43427L12.6427 2.43493C14.2147 2.43493 15.4927 3.71668 15.4927 5.29318V7.87243C15.4927 8.07268 15.3862 8.25718 15.2145 8.35768C13.3633 9.4418 11.0182 10.0741 8.55865 10.1585L8.55892 11.5075C8.55892 11.818 8.30692 12.07 7.99642 12.07C7.68592 12.07 7.43392 11.818 7.43392 11.5075L7.43343 10.1587C4.97638 10.0751 2.63111 9.44261 0.778494 8.35768C0.605994 8.25718 0.500244 8.07268 0.500244 7.87243V5.28568C0.500244 3.71368 1.78199 2.43493 3.35774 2.43493L4.82723 2.43427C4.96788 1.3447 5.90171 0.5 7.02892 0.5H8.96392ZM12.6427 3.55993H3.35774C2.40224 3.55993 1.62524 4.33393 1.62524 5.28568V7.54468C3.40553 8.51199 5.64992 9.04215 7.98599 9.04317L7.99642 9.0422L8.00474 9.0425L8.36186 9.03878C10.5712 8.98615 12.6788 8.46196 14.3677 7.54468V5.29318C14.3677 4.33693 13.5945 3.55993 12.6427 3.55993ZM8.96392 1.625H7.02892C6.52391 1.625 6.09761 1.9687 5.97168 2.43446H10.0212C9.89522 1.9687 9.46893 1.625 8.96392 1.625Z" fill="#666666"/>
</svg>
