<svg width="23" height="24" viewBox="0 0 23 24" fill="none" xmlns="http://www.w3.org/2000/svg">
<path d="M11.7121 17.0453L11.6655 16.9987L11.5996 17.0015C10.6755 17.0409 9.7912 16.8543 8.94456 16.4409L8.94352 16.4404C7.54503 15.7707 6.59297 14.7105 6.08096 13.2534C5.56881 11.7758 5.64745 10.3425 6.31652 8.94467C6.80953 7.95912 7.50789 7.18262 8.4127 6.61206C9.33889 6.04073 10.3317 5.75603 11.3939 5.75603C12.2603 5.75603 13.0762 5.94291 13.8433 6.31663L13.8437 6.31683C15.025 6.88776 15.8888 7.76157 16.4397 8.94216L16.4397 8.94218L16.441 8.9449C17.0121 10.1068 17.159 11.3044 16.8838 12.5431L16.8659 12.6235L16.9241 12.6817L20.5302 16.2878L20.6765 16.4341L20.77 16.2495C21.5482 14.7136 21.9377 13.0945 21.9377 11.3939C21.9377 9.48905 21.4663 7.72558 20.5234 6.1063C19.5811 4.48792 18.2998 3.20665 16.6814 2.2643C15.0622 1.32143 13.2987 0.85 11.3939 0.85C9.48905 0.85 7.72558 1.32143 6.1063 2.2643C4.48792 3.20665 3.20665 4.48792 2.2643 6.1063C1.32143 7.72558 0.85 9.48905 0.85 11.3939C0.85 14.16 1.81453 16.5703 3.73917 18.6178L3.73969 18.6183C5.66459 20.6456 8.0133 21.7433 10.7789 21.9072L10.9378 21.9166V21.7574V19.9983H11.3939C12.2779 19.9983 13.132 19.8647 13.9554 19.5971L14.1881 19.5214L14.0151 19.3483L11.7121 17.0453Z" fill="white" stroke="white" stroke-width="0.3"/>
<path d="M15.1363 12.2274L15.064 12.1551L14.9703 12.196L10.4552 14.1657L10.2535 14.2537L10.4091 14.4092L15.8376 19.8378L15.1191 20.197C14.1262 20.6135 13.0941 20.8514 12.022 20.9109L11.8803 20.9188V21.0607V22.5455V22.7044L12.0389 22.6953C13.1027 22.6339 14.1264 22.4293 15.1093 22.0814C15.8116 21.8472 16.4946 21.5297 17.1584 21.1295L19.1052 23.1054L19.2113 23.213L19.3181 23.1062L22.5605 19.8638L22.6666 19.7577L22.5605 19.6516L15.1363 12.2274Z" fill="#FF9054" stroke="#FF9054" stroke-width="0.3"/>
</svg>
