<svg width="20" height="20" viewBox="0 0 20 20" fill="none" xmlns="http://www.w3.org/2000/svg">
<path d="M14.66 0.00012207C18.06 0.00012207 20 1.92012 20 5.33012V14.6701C20 18.0601 18.07 20.0001 14.67 20.0001H5.33C1.92 20.0001 0 18.0601 0 14.6701V5.33012C0 1.92012 1.92 0.00012207 5.33 0.00012207H14.66ZM9.99 5.51012C9.53 5.51012 9.16 5.88012 9.16 6.34012V9.16012H6.33C6.11 9.16012 5.9 9.25012 5.74 9.40012C5.59 9.56012 5.5 9.76912 5.5 9.99012C5.5 10.4501 5.87 10.8201 6.33 10.8301H9.16V13.6601C9.16 14.1201 9.53 14.4901 9.99 14.4901C10.45 14.4901 10.82 14.1201 10.82 13.6601V10.8301H13.66C14.12 10.8201 14.49 10.4501 14.49 9.99012C14.49 9.53012 14.12 9.16012 13.66 9.16012H10.82V6.34012C10.82 5.88012 10.45 5.51012 9.99 5.51012Z" fill="white"/>
</svg>
