<svg width="31" height="25" viewBox="0 0 31 25" fill="none" xmlns="http://www.w3.org/2000/svg">
<path d="M6.18654 4.15689V12.6119L15.3111 4.41196L15.3781 4.35178L15.4449 4.41208L18.2595 6.95069L18.2925 6.98048V7.02495V10.712L29.8569 21.1731L29.8898 21.2029V21.2473V24V24.2249L29.7228 24.0743L15.378 11.1358L1.06698 24.0437L0.9 24.1943V23.9694V1.00004V0.820282L1.05273 0.915071L6.13927 4.07193L6.18654 4.10126V4.15689Z" fill="white" stroke="white" stroke-width="0.2"/>
<path d="M29.7196 0.867449L29.9396 0.751148V1.00007V20.0518V20.3891L29.6892 20.1631L19.0074 10.5287L18.9579 10.484V10.4173V7.78945V7.45078L19.2087 7.67837L24.5192 12.4974V3.70595V3.61556L24.5991 3.57333L29.7196 0.867449Z" fill="#FF9054" stroke="#FF9054" stroke-width="0.3"/>
</svg>
