<svg width="22" height="18" viewBox="0 0 22 18" fill="none" xmlns="http://www.w3.org/2000/svg">
<path fill-rule="evenodd" clip-rule="evenodd" d="M8.9887 11.5098C6.08798 11.5098 3.61084 11.9483 3.61084 13.7048C3.61084 15.4612 6.07227 15.9155 8.9887 15.9155C11.8894 15.9155 14.3658 15.4762 14.3658 13.7205C14.3658 11.9648 11.9051 11.5098 8.9887 11.5098Z" fill="#666666" stroke="#666666" stroke-width="1.5" stroke-linecap="round" stroke-linejoin="round"/>
<path fill-rule="evenodd" clip-rule="evenodd" d="M8.98867 9.0049C10.8922 9.0049 12.4351 7.46133 12.4351 5.55776C12.4351 3.65419 10.8922 2.11133 8.98867 2.11133C7.0851 2.11133 5.54152 3.65419 5.54152 5.55776C5.5351 7.4549 7.06795 8.99847 8.96438 9.0049H8.98867Z" fill="#666666" stroke="#666666" stroke-width="1.42857" stroke-linecap="round" stroke-linejoin="round"/>
<path d="M15 9H21" stroke="#666666" stroke-linecap="round" stroke-linejoin="round"/>
<path d="M17 7L15 8.99966L17 11" stroke="#666666" stroke-linecap="round" stroke-linejoin="round"/>
</svg>
