<svg width="18" height="18" viewBox="0 0 18 18" fill="none" xmlns="http://www.w3.org/2000/svg">
<path d="M8.99994 1.5C13.1324 1.5 16.4999 4.86 16.4999 9C16.4999 13.1325 13.1324 16.5 8.99994 16.5C4.85994 16.5 1.49994 13.1325 1.49994 9C1.49994 4.86 4.85994 1.5 8.99994 1.5ZM6.79494 7.5225C6.57744 7.2975 6.21744 7.2975 5.99994 7.515C5.77494 7.74 5.77494 8.0925 5.99994 8.31L8.60244 10.9275C8.70744 11.0325 8.84994 11.0925 8.99994 11.0925C9.14994 11.0925 9.29244 11.0325 9.39744 10.9275L11.9999 8.31C12.1124 8.205 12.1649 8.0625 12.1649 7.92C12.1649 7.77 12.1124 7.6275 11.9999 7.515C11.7749 7.2975 11.4224 7.2975 11.2049 7.5225L8.99994 9.735L6.79494 7.5225Z" fill="#FF0909"/>
<path d="M13.4999 9C13.4999 11.4853 11.4852 13.5 8.99994 13.5C6.51466 13.5 4.49994 11.4853 4.49994 9C4.49994 6.51472 6.51466 4.5 8.99994 4.5C11.4852 4.5 13.4999 6.51472 13.4999 9Z" fill="#FF0909"/>
<rect x="5.625" y="8.25" width="7.125" height="1.5" rx="0.75" fill="white"/>
</svg>
