
<svg width="22" height="18" viewBox="0 0 22 18" fill="none" xmlns="http://www.w3.org/2000/svg">
<path fill-rule="evenodd" clip-rule="evenodd" d="M8.98857 11.5098C6.08786 11.5098 3.61072 11.9483 3.61072 13.7048C3.61072 15.4612 6.07215 15.9155 8.98857 15.9155C11.8893 15.9155 14.3657 15.4762 14.3657 13.7205C14.3657 11.9648 11.905 11.5098 8.98857 11.5098Z" fill="#666666" stroke="#666666" stroke-width="1.5" stroke-linecap="round" stroke-linejoin="round"/>
<path fill-rule="evenodd" clip-rule="evenodd" d="M8.98857 9.0049C10.8921 9.0049 12.435 7.46133 12.435 5.55776C12.435 3.65419 10.8921 2.11133 8.98857 2.11133C7.085 2.11133 5.54143 3.65419 5.54143 5.55776C5.535 7.4549 7.06786 8.99847 8.96429 9.0049H8.98857Z" fill="#666666" stroke="#666666" stroke-width="1.42857" stroke-linecap="round" stroke-linejoin="round"/>
<path d="M15 9H21" stroke="#666666" stroke-linecap="round" stroke-linejoin="round"/>
<path d="M17 7L15 8.99966L17 11" stroke="#666666" stroke-linecap="round" stroke-linejoin="round"/>
</svg>
