
<svg width="18" height="18" viewBox="0 0 18 18" fill="none" xmlns="http://www.w3.org/2000/svg">
<g clip-path="url(#clip0_26580_109421)">
<path d="M2.95317 8.86289C2.97075 8.09473 3.12895 7.34941 3.42602 6.64805C3.73012 5.92734 4.16606 5.28223 4.72153 4.725C5.277 4.16777 5.92387 3.73184 6.64458 3.42773C7.38989 3.11309 8.1809 2.95312 8.99829 2.95312C9.81567 2.95312 10.6067 3.11309 11.3502 3.42773C12.0689 3.73121 12.7215 4.17185 13.2715 4.725C13.4456 4.89902 13.609 5.08359 13.7602 5.27695L12.702 6.10313C12.6811 6.11932 12.6651 6.1411 12.656 6.16595C12.6469 6.19081 12.645 6.21773 12.6505 6.24362C12.656 6.26951 12.6687 6.29332 12.6871 6.31231C12.7056 6.3313 12.729 6.34471 12.7547 6.35098L15.8432 7.10684C15.9311 7.12793 16.0172 7.06113 16.0172 6.97148L16.0313 3.7916C16.0313 3.67383 15.8959 3.60703 15.8045 3.68086L14.8131 4.45605C13.4614 2.72637 11.359 1.61719 8.99653 1.61719C4.96938 1.61719 1.69282 4.84453 1.61723 8.85586C1.61676 8.87462 1.62005 8.89329 1.62691 8.91075C1.63377 8.92822 1.64405 8.94414 1.65716 8.95758C1.67026 8.97101 1.68592 8.98168 1.70322 8.98897C1.72051 8.99626 1.73909 9.00001 1.75786 9H2.81254C2.88989 9 2.95141 8.93848 2.95317 8.86289ZM16.2422 9H15.1875C15.1102 9 15.0487 9.06152 15.0469 9.13711C15.0293 9.90527 14.8711 10.6506 14.5741 11.352C14.27 12.0727 13.834 12.7195 13.2786 13.275C12.7179 13.838 12.0513 14.2844 11.3173 14.5885C10.5833 14.8926 9.79633 15.0484 9.0018 15.0469C8.20754 15.0484 7.42085 14.8926 6.68711 14.5884C5.95338 14.2843 5.28713 13.8379 4.7268 13.275C4.55278 13.101 4.3893 12.9164 4.23813 12.723L5.29633 11.8969C5.31727 11.8807 5.33321 11.8589 5.34232 11.834C5.35143 11.8092 5.35334 11.7823 5.34784 11.7564C5.34233 11.7305 5.32962 11.7067 5.31118 11.6877C5.29274 11.6687 5.26932 11.6553 5.2436 11.649L2.15512 10.8932C2.06723 10.8721 1.9811 10.9389 1.9811 11.0285L1.96879 14.2102C1.96879 14.3279 2.10415 14.3947 2.19555 14.3209L3.18696 13.5457C4.53872 15.2736 6.64106 16.3828 9.00356 16.3828C13.0325 16.3828 16.3073 13.1537 16.3829 9.14414C16.3833 9.12538 16.38 9.10671 16.3732 9.08925C16.3663 9.07178 16.356 9.05586 16.3429 9.04242C16.3298 9.02899 16.3142 9.01832 16.2969 9.01103C16.2796 9.00374 16.261 8.99999 16.2422 9V9Z" fill="#ED0F0F"/>
<line x1="14.4472" y1="0.223607" x2="3.44721" y2="22.2236" stroke="#ED0F0F"/>
</g>
<defs>
<clipPath id="clip0_26580_109421">
<rect width="18" height="18" fill="white"/>
</clipPath>
</defs>
</svg>
