<svg width="18" height="18" viewBox="0 0 18 18" fill="none" xmlns="http://www.w3.org/2000/svg">
<path d="M14.3438 3.9375H6.46875C5.79742 3.9375 5.15359 4.20418 4.67889 4.67889C4.20418 5.15359 3.9375 5.79742 3.9375 6.46875V14.3438C3.9375 15.0151 4.20418 15.6589 4.67889 16.1336C5.15359 16.6083 5.79742 16.875 6.46875 16.875H14.3438C15.0151 16.875 15.6589 16.6083 16.1336 16.1336C16.6083 15.6589 16.875 15.0151 16.875 14.3438V6.46875C16.875 5.79742 16.6083 5.15359 16.1336 4.67889C15.6589 4.20418 15.0151 3.9375 14.3438 3.9375ZM13.2029 10.9688H10.9688V13.2029C10.9688 13.5056 10.736 13.7654 10.4333 13.7805C10.3573 13.7842 10.2813 13.7724 10.2099 13.7458C10.1385 13.7192 10.0733 13.6784 10.0182 13.6259C9.96309 13.5734 9.9192 13.5102 9.88921 13.4402C9.85922 13.3702 9.84376 13.2949 9.84375 13.2188V10.9688H7.60957C7.30687 10.9688 7.04707 10.736 7.03195 10.4333C7.02829 10.3573 7.0401 10.2813 7.06668 10.2099C7.09326 10.1385 7.13405 10.0733 7.18658 10.0182C7.23911 9.96309 7.30228 9.9192 7.37227 9.88921C7.44226 9.85922 7.51761 9.84376 7.59375 9.84375H9.84375V7.60957C9.84375 7.30687 10.0765 7.04707 10.3792 7.03195C10.4552 7.02829 10.5312 7.0401 10.6026 7.06668C10.674 7.09326 10.7392 7.13405 10.7943 7.18658C10.8494 7.23911 10.8933 7.30228 10.9233 7.37227C10.9533 7.44226 10.9687 7.51761 10.9688 7.59375V9.84375H13.2188C13.295 9.84366 13.3704 9.85906 13.4405 9.889C13.5105 9.91895 13.5738 9.96282 13.6264 10.018C13.679 10.0731 13.7198 10.1383 13.7465 10.2097C13.7731 10.2811 13.7849 10.3572 13.7812 10.4333C13.7665 10.736 13.5056 10.9688 13.2029 10.9688Z" fill="#666666"/>
<path d="M13.9177 2.8125C13.7426 2.31934 13.4193 1.89242 12.9921 1.59029C12.5648 1.28816 12.0545 1.12563 11.5312 1.125H3.65625C2.98492 1.125 2.34109 1.39168 1.86639 1.86639C1.39168 2.34109 1.125 2.98492 1.125 3.65625V11.5312C1.12563 12.0545 1.28816 12.5648 1.59029 12.9921C1.89242 13.4193 2.31934 13.7426 2.8125 13.9177V5.625C2.8125 4.87908 3.10882 4.16371 3.63626 3.63626C4.16371 3.10882 4.87908 2.8125 5.625 2.8125H13.9177Z" fill="#666666"/>
</svg>
