<svg width="18" height="18" viewBox="0 0 18 18" fill="none" xmlns="http://www.w3.org/2000/svg">
<path fill-rule="evenodd" clip-rule="evenodd" d="M4.68741 5.79937C4.99791 5.79937 5.24991 6.05137 5.24991 6.36187C5.24991 6.67237 4.99791 6.92437 4.68741 6.92437H3.98166C2.77116 6.92437 2.62509 7.90762 2.62509 9.11737V12.7811C2.62509 13.9954 3.61209 14.9824 4.82634 14.9824H13.1813C14.3903 14.9824 15.3751 13.9976 15.3751 12.7886V9.12562C15.3751 7.91137 15.0931 6.92437 13.8803 6.92437H13.1813C12.8708 6.92437 12.6188 6.67237 12.6188 6.36187C12.6188 6.05137 12.8708 5.79937 13.1813 5.79937H13.8803C15.7141 5.79937 16.5001 7.29187 16.5001 9.12562V12.7886C16.5001 14.6186 15.0106 16.1074 13.1813 16.1074H4.82634C2.99259 16.1074 1.50009 14.6156 1.50009 12.7811V9.11737C1.50009 7.28737 2.15091 5.79937 3.98166 5.79937H4.68741Z" fill="#222222"/>
<path d="M11.0279 3.21756C11.183 3.21756 11.3112 3.34414 11.3315 3.50838L11.3343 3.55403L11.3343 8.84785L12.4765 7.58834C12.5959 7.45664 12.7899 7.45615 12.9098 7.58724C13.0188 7.70642 13.0291 7.89332 12.9404 8.02527L12.9108 8.06308L11.245 9.90096C11.235 9.91179 11.2248 9.92163 11.214 9.93069L11.245 9.90096C11.23 9.91754 11.2138 9.93204 11.1967 9.94446C11.1907 9.94855 11.1845 9.95271 11.1782 9.95664C11.1723 9.96053 11.1663 9.96395 11.1602 9.96714C11.1543 9.97005 11.1482 9.97298 11.142 9.9757C11.1342 9.97938 11.1262 9.9825 11.118 9.98523C11.1132 9.98664 11.1083 9.98815 11.1034 9.98953C11.0946 9.99219 11.0857 9.9942 11.0768 9.99577C11.0726 9.99629 11.0682 9.99696 11.0638 9.99753C11.0538 9.99905 11.0438 9.99979 11.0338 10C11.0318 9.99979 11.0299 9.99981 11.0279 9.99981L11.022 10C11.012 9.99979 11.002 9.99905 10.9921 9.99777L11.0279 9.99981C11.0112 9.99981 10.9949 9.99835 10.9789 9.99553C10.9701 9.9942 10.9612 9.99219 10.9524 9.98975C10.9478 9.98822 10.9431 9.98679 10.9385 9.98525C10.9297 9.98256 10.921 9.97917 10.9124 9.97533C10.9077 9.97295 10.9031 9.97078 10.8986 9.96848C10.8916 9.96517 10.8845 9.96119 10.8776 9.95688C10.8713 9.95269 10.8651 9.94853 10.8591 9.94415C10.8544 9.94104 10.8497 9.93746 10.8451 9.93372L10.8419 9.93069C10.8311 9.92163 10.8209 9.91179 10.8113 9.90126L10.8107 9.90096L9.14496 8.06308C9.02559 7.93138 9.02604 7.71834 9.14596 7.58724C9.25498 7.46807 9.42521 7.45764 9.54495 7.55568L9.57924 7.58834L10.7215 8.84875L10.7215 3.55403C10.7215 3.36821 10.8587 3.21756 11.0279 3.21756ZM6.97214 2.00019L6.97811 2C6.98809 2.00021 6.99807 2.00095 7.008 2.00223L6.97214 2.00019C6.98883 2.00019 7.00521 2.00165 7.02117 2.00447C7.02991 2.00578 7.03867 2.00776 7.04736 2.01017C7.05247 2.01182 7.05768 2.01342 7.06283 2.01517C7.07087 2.01766 7.07866 2.02069 7.08634 2.02407C7.0919 2.02679 7.09753 2.02949 7.10306 2.03237C7.10964 2.03549 7.11612 2.03917 7.1225 2.04312C7.12796 2.04681 7.13337 2.05041 7.13866 2.05418C7.14411 2.05773 7.14956 2.0619 7.15492 2.06628L7.18932 2.09904L8.8551 3.93691C8.97447 4.06862 8.97403 4.28166 8.8541 4.41276C8.74508 4.53193 8.57485 4.54236 8.45512 4.44432L8.42082 4.41166L7.27824 3.15073L7.27851 8.44597C7.27851 8.63179 7.14135 8.78244 6.97214 8.78244C6.81703 8.78244 6.68885 8.65586 6.66856 8.49162L6.66576 8.44597L6.66549 3.15118L5.52355 4.41166C5.41503 4.53139 5.24484 4.54268 5.1247 4.44525L5.09027 4.41276C4.98125 4.29358 4.97096 4.10668 5.05968 3.97473L5.08927 3.93691L6.75504 2.09904L6.77308 2.08087C6.77732 2.07689 6.78166 2.07303 6.78609 2.06931L6.75504 2.09904C6.77007 2.08246 6.78628 2.06795 6.80338 2.05553C6.80934 2.05145 6.81554 2.04729 6.82188 2.04336C6.82777 2.03947 6.83375 2.03605 6.83981 2.03286C6.84579 2.02995 6.85186 2.02702 6.85803 2.0243C6.86587 2.02062 6.8739 2.0175 6.88202 2.01477C6.88697 2.01331 6.89203 2.01175 6.89714 2.01034C6.90537 2.00786 6.91369 2.00596 6.92205 2.00445C6.92709 2.00375 6.93202 2.003 6.93698 2.00238C6.94644 2.00095 6.95614 2.00023 6.96585 2.00001C6.968 2.00021 6.97007 2.00019 6.97214 2.00019Z" fill="#222222"/>
<path d="M6.97214 2.00019L6.97811 2C6.98809 2.00021 6.99807 2.00095 7.008 2.00223L6.97214 2.00019ZM6.97214 2.00019C6.98883 2.00019 7.00521 2.00165 7.02117 2.00447C7.02991 2.00578 7.03867 2.00776 7.04736 2.01017C7.05247 2.01182 7.05768 2.01342 7.06283 2.01517C7.07087 2.01766 7.07866 2.02069 7.08634 2.02407C7.0919 2.02679 7.09753 2.02949 7.10306 2.03237C7.10964 2.03549 7.11612 2.03917 7.1225 2.04312C7.12796 2.04681 7.13337 2.05041 7.13866 2.05418C7.14411 2.05773 7.14956 2.0619 7.15492 2.06628L7.18932 2.09904L8.8551 3.93691C8.97447 4.06862 8.97402 4.28166 8.8541 4.41276C8.74508 4.53193 8.57485 4.54236 8.45512 4.44432L8.42082 4.41166L7.27824 3.15073L7.27851 8.44597C7.27851 8.63179 7.14135 8.78244 6.97214 8.78244C6.81703 8.78244 6.68885 8.65585 6.66856 8.49162L6.66576 8.44597L6.66549 3.15118L5.52355 4.41166C5.41503 4.53139 5.24484 4.54268 5.1247 4.44525L5.09027 4.41276C4.98125 4.29358 4.97096 4.10668 5.05968 3.97473L5.08927 3.93691L6.75504 2.09904L6.77308 2.08087C6.77732 2.07689 6.78166 2.07303 6.78609 2.06931L6.75504 2.09904C6.77007 2.08246 6.78628 2.06795 6.80338 2.05553C6.80934 2.05145 6.81554 2.04729 6.82188 2.04336C6.82777 2.03947 6.83375 2.03605 6.83981 2.03286C6.84579 2.02995 6.85186 2.02702 6.85803 2.0243C6.86587 2.02062 6.8739 2.0175 6.88202 2.01477C6.88697 2.01331 6.89203 2.01175 6.89714 2.01034C6.90537 2.00786 6.91369 2.00596 6.92205 2.00445C6.92709 2.00375 6.93202 2.003 6.93698 2.00238C6.94644 2.00095 6.95614 2.00023 6.96585 2.00001C6.968 2.00021 6.97007 2.00019 6.97214 2.00019ZM11.0279 3.21756C11.183 3.21756 11.3112 3.34414 11.3315 3.50838L11.3343 3.55403L11.3343 8.84785L12.4765 7.58834C12.5959 7.45664 12.7899 7.45615 12.9098 7.58724C13.0188 7.70642 13.0291 7.89332 12.9404 8.02527L12.9108 8.06308L11.245 9.90096C11.235 9.91179 11.2248 9.92163 11.214 9.93069L11.245 9.90096C11.23 9.91754 11.2138 9.93204 11.1967 9.94446C11.1907 9.94855 11.1845 9.95271 11.1782 9.95664C11.1723 9.96053 11.1663 9.96395 11.1602 9.96714C11.1543 9.97005 11.1482 9.97298 11.142 9.9757C11.1342 9.97938 11.1262 9.9825 11.118 9.98523C11.1132 9.98664 11.1083 9.98815 11.1034 9.98953C11.0946 9.99219 11.0857 9.9942 11.0768 9.99577C11.0726 9.99629 11.0682 9.99696 11.0638 9.99753C11.0538 9.99905 11.0438 9.99979 11.0338 10C11.0318 9.99979 11.0299 9.99981 11.0279 9.99981L11.022 10C11.012 9.99979 11.002 9.99905 10.9921 9.99777L11.0279 9.99981C11.0112 9.99981 10.9949 9.99835 10.9789 9.99553C10.9701 9.9942 10.9612 9.99219 10.9524 9.98975C10.9478 9.98822 10.9431 9.98679 10.9385 9.98525C10.9297 9.98256 10.921 9.97917 10.9124 9.97533C10.9077 9.97295 10.9031 9.97078 10.8986 9.96848C10.8916 9.96517 10.8845 9.96119 10.8776 9.95688C10.8713 9.95269 10.8651 9.94853 10.8591 9.94415C10.8544 9.94104 10.8497 9.93746 10.8451 9.93372L10.8419 9.93069C10.8311 9.92163 10.8209 9.91179 10.8113 9.90126L10.8107 9.90096L9.14496 8.06308C9.02559 7.93138 9.02604 7.71834 9.14596 7.58724C9.25498 7.46807 9.42521 7.45764 9.54495 7.55568L9.57924 7.58834L10.7215 8.84875L10.7215 3.55403C10.7215 3.36821 10.8587 3.21756 11.0279 3.21756Z" stroke="#222222" stroke-width="0.3"/>
</svg>
