<svg width="238" height="72" viewBox="0 0 238 72" fill="none" xmlns="http://www.w3.org/2000/svg">
<path d="M42.605 35.5L22 32V57.8623C22.0002 58.1433 22.0579 58.4214 22.1696 58.6809C22.2814 58.9404 22.445 59.1761 22.6512 59.3746C22.8574 59.5731 23.1022 59.7305 23.3715 59.8378C23.6408 59.9451 23.9294 60.0002 24.2208 60H59.7755C60.0672 60.0007 60.3562 59.9459 60.6259 59.8389C60.8957 59.7318 61.1409 59.5744 61.3475 59.3759C61.5541 59.1773 61.7181 58.9415 61.83 58.6817C61.942 58.422 61.9998 58.1436 62 57.8623V48.3333L42.605 35.5Z" fill="#185C37"/>
<path d="M42.605 12H24.2208C23.9294 11.9998 23.6408 12.0573 23.3715 12.1692C23.1022 12.2812 22.8574 12.4454 22.6512 12.6526C22.445 12.8597 22.2814 13.1057 22.1696 13.3764C22.0579 13.6472 22.0002 13.9375 22 14.2306V24.1739L42.605 36.3478L53.5153 40L62 36.3478V24.1739L42.605 12Z" fill="#21A366"/>
<path d="M22 24H42V36H22V24Z" fill="#107C41"/>
<path opacity="0.1" d="M36.7734 22H22V52H36.7734C37.362 51.9971 37.9258 51.7647 38.3426 51.3531C38.7594 50.9416 38.9956 50.384 39 49.8012V24.1988C38.9956 23.616 38.7594 23.0584 38.3426 22.6469C37.9258 22.2353 37.362 22.0029 36.7734 22Z" fill="black"/>
<path opacity="0.2" d="M35.7432 23H22V53H35.7432C36.3398 52.9971 36.9113 52.7647 37.3337 52.3531C37.7562 51.9416 37.9955 51.384 38 50.8012V25.1988C37.9955 24.616 37.7562 24.0584 37.3337 23.6469C36.9113 23.2353 36.3398 23.0029 35.7432 23Z" fill="black"/>
<path opacity="0.2" d="M35.7432 23H22V50H35.7432C36.3398 49.9972 36.9113 49.7698 37.3337 49.3672C37.7562 48.9646 37.9955 48.4191 38 47.849V25.151C37.9955 24.5809 37.7562 24.0354 37.3337 23.6328C36.9113 23.2302 36.3398 23.0028 35.7432 23Z" fill="black"/>
<path opacity="0.2" d="M34.708 23H22V50H34.708C35.3139 49.9972 35.8943 49.7698 36.3233 49.3672C36.7523 48.9646 36.9955 48.4191 37 47.849V25.151C36.9955 24.5809 36.7523 24.0354 36.3233 23.6328C35.8943 23.2302 35.3139 23.0028 34.708 23Z" fill="black"/>
<path d="M12.2503 23H34.7497C35.3457 22.9995 35.9175 23.2273 36.3395 23.6334C36.7614 24.0394 36.999 24.5905 37 25.1655V46.8345C36.999 47.4095 36.7614 47.9606 36.3395 48.3666C35.9175 48.7727 35.3457 49.0005 34.7497 49H12.2503C11.9551 49.0005 11.6628 48.9448 11.3899 48.8362C11.117 48.7277 10.869 48.5683 10.66 48.3671C10.451 48.166 10.2852 47.9272 10.1719 47.6642C10.0587 47.4012 10.0002 47.1193 10 46.8345V25.1655C10.0002 24.8807 10.0587 24.5988 10.1719 24.3358C10.2852 24.0728 10.451 23.834 10.66 23.6329C10.869 23.4317 11.117 23.2723 11.3899 23.1638C11.6628 23.0552 11.9551 22.9995 12.2503 23Z" fill="url(#paint0_linear_4214_37941)"/>
<path d="M17 42.9946L21.7104 35.9774L17.3958 29H20.8606L23.2149 33.4679C23.4325 33.8907 23.59 34.2051 23.6613 34.4146H23.6932C23.847 34.075 24.0102 33.748 24.181 33.4282L26.6984 29.0072H29.8874L25.4622 35.9449L30 43H26.6065L23.8864 38.1021C23.7601 37.8915 23.6528 37.6709 23.5657 37.4426H23.5206C23.4413 37.665 23.3356 37.8778 23.2055 38.0768L20.4048 42.9946H17Z" fill="white"/>
<path d="M59.708 12H42V24H62V14.1988C61.9997 13.9096 61.9403 13.6234 61.8249 13.3563C61.7096 13.0893 61.5406 12.8468 61.3278 12.6426C61.1149 12.4384 60.8623 12.2765 60.5844 12.1663C60.3065 12.056 60.0087 11.9995 59.708 12Z" fill="#33C481"/>
<path d="M42 36H62V48H42V36Z" fill="#107C41"/>
<path d="M229 14.0625H175C174.552 14.0625 174.123 14.2403 173.807 14.5568C173.49 14.8732 173.312 15.3024 173.312 15.75V54C173.314 55.0439 173.729 56.0448 174.467 56.7829C175.205 57.5211 176.206 57.9363 177.25 57.9375H226.75C227.794 57.9363 228.795 57.5211 229.533 56.7829C230.271 56.0448 230.686 55.0439 230.688 54V15.75C230.688 15.3024 230.51 14.8732 230.193 14.5568C229.877 14.2403 229.448 14.0625 229 14.0625ZM176.688 30.9375H189.062V41.0625H176.688V30.9375ZM192.438 30.9375H227.312V41.0625H192.438V30.9375ZM227.312 17.4375V27.5625H176.688V17.4375H227.312ZM176.688 54V44.4375H189.062V54.5625H177.25C177.101 54.5624 176.958 54.503 176.852 54.3976C176.747 54.2921 176.688 54.1491 176.688 54ZM226.75 54.5625H192.438V44.4375H227.312V54C227.312 54.1491 227.253 54.2921 227.148 54.3976C227.042 54.503 226.899 54.5624 226.75 54.5625Z" fill="#0761AD"/>
<rect opacity="0.2" x="176" y="30" width="15" height="26" fill="#0761AD"/>
<path d="M136.061 38.0607C136.646 37.4749 136.646 36.5251 136.061 35.9393L126.515 26.3934C125.929 25.8076 124.979 25.8076 124.393 26.3934C123.808 26.9792 123.808 27.9289 124.393 28.5147L132.879 37L124.393 45.4853C123.808 46.0711 123.808 47.0208 124.393 47.6066C124.979 48.1924 125.929 48.1924 126.515 47.6066L136.061 38.0607ZM103 38.5H135V35.5H103V38.5Z" fill="#0761AD"/>
<defs>
<linearGradient id="paint0_linear_4214_37941" x1="14.7004" y1="21.2982" x2="31.3684" y2="51.2205" gradientUnits="userSpaceOnUse">
<stop stop-color="#18884F"/>
<stop offset="0.5" stop-color="#117E43"/>
<stop offset="1" stop-color="#0B6631"/>
</linearGradient>
</defs>
</svg>
