<svg width="16" height="16" viewBox="0 0 16 16" fill="none" xmlns="http://www.w3.org/2000/svg">
<path d="M12.7803 2.47625C12.9754 2.28591 13.2812 2.28591 13.4698 2.47625C13.665 2.66659 13.665 2.98163 13.4698 3.17197L12.2859 4.36651C13.2291 5.23287 14.0292 6.40116 14.6277 7.80572C14.6797 7.93043 14.6797 8.07482 14.6277 8.19296C13.2356 11.4615 10.7573 13.4174 7.99916 13.4174H7.99266C6.73721 13.4174 5.5338 13.0039 4.4735 12.2491L3.21154 13.5224C3.11397 13.6209 2.99037 13.6668 2.86678 13.6668C2.74319 13.6668 2.61309 13.6209 2.52202 13.5224C2.3594 13.3583 2.33338 13.0958 2.46347 12.9055L2.48299 12.8792L12.1038 3.17197C12.1168 3.15884 12.1298 3.14572 12.1363 3.13259C12.1493 3.11946 12.1623 3.10634 12.1688 3.09321L12.7803 2.47625ZM8.00092 2.59039C8.93112 2.59039 9.83531 2.81354 10.6679 3.2336L8.49529 5.42577C8.33918 5.39952 8.17005 5.37983 8.00092 5.37983C6.56333 5.37983 5.39895 6.55467 5.39895 8.00518C5.39895 8.17583 5.41847 8.34648 5.44449 8.504L3.03766 10.9325C2.38717 10.1711 1.82124 9.25223 1.3724 8.19552C1.32036 8.07738 1.32036 7.93299 1.3724 7.80828C2.76446 4.53971 5.24283 2.59039 7.99441 2.59039H8.00092ZM10.1458 6.52586L9.43675 7.24127C9.55384 7.46443 9.61889 7.72696 9.61889 8.00262C9.61889 8.90181 8.89034 9.63691 7.99916 9.63691C7.72596 9.63691 7.46576 9.57127 7.24459 9.45313L6.53556 10.1685C6.95187 10.4508 7.45925 10.6214 7.99916 10.6214C9.43025 10.6214 10.5946 9.44657 10.5946 8.00262C10.5946 7.45786 10.4255 6.94592 10.1458 6.52586Z" fill="#333333" fill-opacity="0.3"/>
</svg>
