<svg width="18" height="18" viewBox="0 0 18 18" fill="none" xmlns="http://www.w3.org/2000/svg">
<g clip-path="url(#clip0_2867_32894)">
<path d="M12.5 2C9.424 2 7 4.424 7 7.5C7 7.897 7.04 8.296 7.122 8.675C7.18 8.945 7.114 9.179 6.98 9.313L2.44 13.853C2.30043 13.9924 2.18973 14.1579 2.11423 14.3402C2.03873 14.5224 1.99991 14.7177 2 14.915V16.5C2 16.8978 2.15804 17.2794 2.43934 17.5607C2.72064 17.842 3.10218 18 3.5 18H5.5C5.89783 18 6.27936 17.842 6.56066 17.5607C6.84196 17.2794 7 16.8978 7 16.5V16H8C8.26522 16 8.51957 15.8946 8.70711 15.7071C8.89464 15.5196 9 15.2652 9 15V14C9 13.49 9.255 13.038 9.646 12.767L8.439 11.56C8.29961 11.4207 8.18904 11.2553 8.11359 11.0732C8.03815 10.8912 7.99932 10.6961 7.99932 10.499C7.99932 10.3019 8.03815 10.1068 8.11359 9.92475C8.18904 9.7427 8.29961 9.5773 8.439 9.438L10.439 7.438C10.6795 7.1964 10.9951 7.0439 11.3338 7.00564C11.6725 6.96739 12.0142 7.04564 12.3025 7.22752C12.5908 7.4094 12.8085 7.68405 12.9199 8.00624C13.0312 8.32842 13.0295 8.67892 12.915 9H14C15.2101 9.0003 16.379 9.43945 17.29 10.236C17.744 9.434 18 8.5 18 7.5C18 4.424 15.576 2 12.5 2ZM14 5C14.2652 5 14.5196 5.10536 14.7071 5.29289C14.8946 5.48043 15 5.73478 15 6C15 6.26522 14.8946 6.51957 14.7071 6.70711C14.5196 6.89464 14.2652 7 14 7C13.7348 7 13.4804 6.89464 13.2929 6.70711C13.1054 6.51957 13 6.26522 13 6C13 5.73478 13.1054 5.48043 13.2929 5.29289C13.4804 5.10536 13.7348 5 14 5ZM11.854 8.854C11.9479 8.76011 12.0006 8.63278 12.0006 8.5C12.0006 8.36722 11.9479 8.23989 11.854 8.146C11.7601 8.05211 11.6328 7.99937 11.5 7.99937C11.3672 7.99937 11.2399 8.05211 11.146 8.146L9.146 10.146C9.09944 10.1924 9.06249 10.2476 9.03729 10.3084C9.01208 10.3691 8.99911 10.4342 8.99911 10.5C8.99911 10.5658 9.01208 10.6309 9.03729 10.6916C9.06249 10.7524 9.09944 10.8076 9.146 10.854L11.146 12.854C11.2399 12.9479 11.3672 13.0006 11.5 13.0006C11.6328 13.0006 11.7601 12.9479 11.854 12.854C11.9479 12.7601 12.0006 12.6328 12.0006 12.5C12.0006 12.3672 11.9479 12.2399 11.854 12.146L10.707 11H14C14.5933 11 15.1734 11.1759 15.6667 11.5056C16.1601 11.8352 16.5446 12.3038 16.7716 12.8519C16.9987 13.4001 17.0581 14.0033 16.9424 14.5853C16.8266 15.1672 16.5409 15.7018 16.1213 16.1213C15.7018 16.5409 15.1672 16.8266 14.5853 16.9424C14.0033 17.0581 13.4001 16.9987 12.8519 16.7716C12.3038 16.5446 11.8352 16.1601 11.5056 15.6667C11.1759 15.1734 11 14.5933 11 14C11 13.8674 10.9473 13.7402 10.8536 13.6464C10.7598 13.5527 10.6326 13.5 10.5 13.5C10.3674 13.5 10.2402 13.5527 10.1464 13.6464C10.0527 13.7402 10 13.8674 10 14C10 14.7911 10.2346 15.5645 10.6741 16.2223C11.1136 16.8801 11.7384 17.3928 12.4693 17.6955C13.2002 17.9983 14.0044 18.0775 14.7804 17.9231C15.5563 17.7688 16.269 17.3878 16.8284 16.8284C17.3878 16.269 17.7688 15.5563 17.9231 14.7804C18.0775 14.0044 17.9983 13.2002 17.6955 12.4693C17.3928 11.7384 16.8801 11.1136 16.2223 10.6741C15.5645 10.2346 14.7911 10 14 10H10.707L11.854 8.854Z" fill="#FF0909"/>
</g>
<defs>
<clipPath id="clip0_2867_32894">
<rect width="18" height="18" fill="white"/>
</clipPath>
</defs>
</svg>