<svg width="18" height="18" viewBox="0 0 18 18" fill="none" xmlns="http://www.w3.org/2000/svg">
<path d="M9 1.5C6.93225 1.5 5.25 3.18225 5.25 5.25V7.5H4.5C4.10218 7.5 3.72064 7.65804 3.43934 7.93934C3.15804 8.22064 3 8.60218 3 9V15C3 15.3978 3.15804 15.7794 3.43934 16.0607C3.72064 16.342 4.10218 16.5 4.5 16.5H13.5C13.8978 16.5 14.2794 16.342 14.5607 16.0607C14.842 15.7794 15 15.3978 15 15V9C15 8.60218 14.842 8.22064 14.5607 7.93934C14.2794 7.65804 13.8978 7.5 13.5 7.5H12.75V5.25C12.75 3.18225 11.0677 1.5 9 1.5ZM6.75 5.25C6.75 4.0095 7.7595 3 9 3C10.2405 3 11.25 4.0095 11.25 5.25V7.5H6.75V5.25ZM9.75 13.2922V15H8.25V13.2922C7.98779 13.1421 7.77724 12.916 7.64612 12.6438C7.515 12.3715 7.46946 12.066 7.51551 11.7673C7.56156 11.4687 7.69704 11.191 7.90407 10.9709C8.11111 10.7509 8.37999 10.5987 8.67525 10.5345C8.89456 10.486 9.12196 10.4874 9.34068 10.5385C9.5594 10.5896 9.76386 10.6891 9.93899 10.8298C10.1141 10.9704 10.2554 11.1486 10.3525 11.3511C10.4496 11.5536 10.5 11.7754 10.5 12C10.4996 12.2623 10.43 12.5199 10.2983 12.7467C10.1667 12.9736 9.97754 13.1618 9.75 13.2922Z" fill="#666666"/>
</svg>
