<svg width="35" height="40" viewBox="0 0 35 40" fill="none" xmlns="http://www.w3.org/2000/svg">
<path fill-rule="evenodd" clip-rule="evenodd" d="M21.9502 0.00012207C22.0361 0.00012207 22.1203 0.00735434 22.2022 0.0212428L22.476 0.0229221C22.884 0.0229221 23.274 0.188922 23.558 0.482922L33.688 11.0369C33.956 11.3149 34.1062 11.6889 34.1062 12.0749V30.4069C34.142 35.4249 30.234 39.5249 25.208 39.7289L9.16995 39.7309H8.95195C4.05207 39.6202 0.122278 35.6574 0.00255679 30.8053L0.00195312 8.98092C0.117953 4.01892 4.21595 0.0229221 9.14195 0.0229221L21.6981 0.0212428C21.78 0.00735434 21.8643 0.00012207 21.9502 0.00012207ZM20.45 3.02212L9.14595 3.02292C5.83195 3.02292 3.07995 5.70692 3.00195 9.01692V30.4069C2.92795 33.8329 5.62795 36.6549 9.01995 36.7309H25.148C28.486 36.5929 31.13 33.8189 31.1061 30.4189L31.106 13.9661L27.0862 13.9681C23.4262 13.9581 20.4502 10.9741 20.4502 7.31812L20.45 3.02212ZM21.5766 25.2163C22.4046 25.2163 23.0766 25.8883 23.0766 26.7163C23.0766 27.5443 22.4046 28.2163 21.5766 28.2163H10.7766C9.94855 28.2163 9.27655 27.5443 9.27655 26.7163C9.27655 25.8883 9.94855 25.2163 10.7766 25.2163H21.5766ZM17.4868 17.7123C18.3148 17.7123 18.9868 18.3843 18.9868 19.2123C18.9868 20.0403 18.3148 20.7123 17.4868 20.7123H10.7748C9.94675 20.7123 9.27475 20.0403 9.27475 19.2123C9.27475 18.3843 9.94675 17.7123 10.7748 17.7123H17.4868ZM23.45 4.70412L23.4502 7.31812C23.4502 9.32612 25.0842 10.9621 27.0902 10.9681L29.462 10.9661L23.45 4.70412Z" fill="#0761AD"/>
</svg>
