
<svg width="18" height="18" viewBox="0 0 18 18" fill="none" xmlns="http://www.w3.org/2000/svg">
<path d="M4.92779 4.00176V4.75158H4.31822C3.67412 4.75158 3.05641 5.00744 2.60096 5.46289C2.14552 5.91834 1.88965 6.53605 1.88965 7.18015V11.4301C1.88965 11.9132 2.08155 12.3765 2.42313 12.7181C2.76472 13.0597 3.228 13.2516 3.71108 13.2516H4.92536V13.8587C4.92536 14.3418 5.11726 14.8051 5.45885 15.1467C5.80043 15.4882 6.26372 15.6801 6.74679 15.6801H11.6039C12.087 15.6801 12.5503 15.4882 12.8919 15.1467C13.2335 14.8051 13.4254 14.3418 13.4254 13.8587V13.2516H14.6396C15.1227 13.2516 15.586 13.0597 15.9276 12.7181C16.2692 12.3765 16.4611 11.9132 16.4611 11.4301V7.18015C16.4611 6.53605 16.2052 5.91834 15.7498 5.46289C15.2943 5.00744 14.6766 4.75158 14.0325 4.75158H13.4254V3.99386C13.4254 3.7744 13.3821 3.55709 13.298 3.35436C13.214 3.15163 13.0908 2.96746 12.9355 2.81239C12.7802 2.65732 12.5958 2.53438 12.393 2.45062C12.1901 2.36685 11.9728 2.3239 11.7533 2.32422L6.59501 2.33211C6.15261 2.33276 5.72855 2.50895 5.41596 2.822C5.10337 3.13505 4.92779 3.55936 4.92779 4.00176ZM13.4254 12.3409V10.823C13.4254 10.3399 13.2335 9.87665 12.8919 9.53506C12.5503 9.19348 12.087 9.00158 11.6039 9.00158H6.74679C6.26372 9.00158 5.80043 9.19348 5.45885 9.53506C5.11726 9.87665 4.92536 10.3399 4.92536 10.823V12.3409H3.71108C3.46954 12.3409 3.2379 12.2449 3.0671 12.0741C2.89631 11.9033 2.80036 11.6717 2.80036 11.4301V7.18015C2.80036 6.77759 2.96028 6.39152 3.24493 6.10686C3.52959 5.82221 3.91566 5.66229 4.31822 5.66229H14.0325C14.4351 5.66229 14.8211 5.82221 15.1058 6.10686C15.3904 6.39152 15.5504 6.77759 15.5504 7.18015V11.4301C15.5504 11.6717 15.4544 11.9033 15.2836 12.0741C15.1128 12.2449 14.8812 12.3409 14.6396 12.3409H13.4254ZM12.5146 3.99386V4.75158H5.83851V4.00176C5.83851 3.58283 6.17729 3.24343 6.59622 3.24283L11.7545 3.23493C11.8543 3.23478 11.9531 3.25429 12.0453 3.29236C12.1375 3.33042 12.2213 3.3863 12.2919 3.45679C12.3625 3.52728 12.4185 3.611 12.4568 3.70315C12.495 3.79531 12.5146 3.8941 12.5146 3.99386ZM6.74679 9.91229H11.6039C11.8455 9.91229 12.0771 10.0082 12.2479 10.179C12.4187 10.3498 12.5146 10.5815 12.5146 10.823V13.8587C12.5146 14.1003 12.4187 14.3319 12.2479 14.5027C12.0771 14.6735 11.8455 14.7694 11.6039 14.7694H6.74679C6.50525 14.7694 6.27361 14.6735 6.10282 14.5027C5.93203 14.3319 5.83608 14.1003 5.83608 13.8587V10.823C5.83608 10.5815 5.93203 10.3498 6.10282 10.179C6.27361 10.0082 6.50525 9.91229 6.74679 9.91229Z" fill="white"/>
</svg>