<svg width="18" height="18" viewBox="0 0 18 18" fill="none" xmlns="http://www.w3.org/2000/svg">
<path fill-rule="evenodd" clip-rule="evenodd" d="M9.20049 1.50049C9.73749 1.50049 10.2595 1.72099 10.6337 2.10424C11.0072 2.48974 11.2135 3.01849 11.1977 3.55474C11.1992 3.67549 11.239 3.81499 11.311 3.93724C11.4302 4.13974 11.6185 4.28224 11.842 4.34074C12.0655 4.39624 12.2995 4.36624 12.4982 4.24849C13.4582 3.70024 14.68 4.02874 15.2282 4.98124L15.6955 5.79049C15.7075 5.81224 15.718 5.83324 15.727 5.85499C16.2235 6.79324 15.892 7.97449 14.9695 8.51374C14.8352 8.59099 14.7265 8.69899 14.6515 8.82949C14.5352 9.03124 14.503 9.27124 14.5615 9.49174C14.6215 9.71674 14.7647 9.90349 14.9665 10.019C15.4217 10.2807 15.7615 10.7217 15.8972 11.231C16.033 11.7395 15.9587 12.2915 15.694 12.7467L15.196 13.5762C14.6477 14.5182 13.426 14.8445 12.4757 14.2955C12.349 14.2227 12.2027 14.183 12.0572 14.1792H12.0527C11.836 14.1792 11.6132 14.2715 11.4512 14.4327C11.287 14.597 11.197 14.816 11.1985 15.0485C11.1932 16.1502 10.297 17.0412 9.20049 17.0412H8.26074C7.15899 17.0412 6.26274 16.1457 6.26274 15.044C6.26124 14.9082 6.22224 14.7672 6.14949 14.645C6.03174 14.4395 5.84124 14.2925 5.62149 14.234C5.40324 14.1755 5.16399 14.2077 4.96749 14.3217C4.49649 14.5842 3.94224 14.648 3.43524 14.5055C2.92899 14.3622 2.49174 14.0142 2.23524 13.553L1.76649 12.7452C1.21824 11.7942 1.54449 10.5755 2.49399 10.0265C2.76324 9.87124 2.93049 9.58174 2.93049 9.27124C2.93049 8.96074 2.76324 8.67049 2.49399 8.51524C1.54374 7.96324 1.21824 6.74149 1.76574 5.79049L2.27424 4.95574C2.81499 4.01524 4.03749 3.68374 4.99074 4.23124C5.12049 4.30849 5.26149 4.34749 5.40474 4.34899C5.87199 4.34899 6.26274 3.96349 6.27024 3.48949C6.26724 2.96674 6.47349 2.46499 6.84924 2.08624C7.22649 1.70824 7.72749 1.50049 8.26074 1.50049H9.20049ZM9.20049 2.62549H8.26074C8.02824 2.62549 7.81074 2.71624 7.64649 2.87974C7.48299 3.04399 7.39374 3.26224 7.39524 3.49474C7.37949 4.59124 6.48324 5.47399 5.39799 5.47399C5.04999 5.47024 4.71474 5.37649 4.42374 5.20249C4.01499 4.96999 3.48099 5.11324 3.24174 5.52949L2.73399 6.36424C2.50149 6.76774 2.64399 7.30099 3.05799 7.54174C3.67224 7.89724 4.05549 8.56024 4.05549 9.27124C4.05549 9.98224 3.67224 10.6445 3.05649 11.0007C2.64474 11.2392 2.50224 11.7695 2.74074 12.182L3.21399 12.998C3.33099 13.2087 3.52224 13.361 3.74349 13.4232C3.96399 13.4847 4.20699 13.4585 4.40949 13.346C4.70724 13.1712 5.05374 13.0805 5.40174 13.0805C5.57349 13.0805 5.74524 13.1022 5.91324 13.1472C6.42024 13.2837 6.86049 13.6227 7.12149 14.078C7.29099 14.3637 7.38474 14.6975 7.38774 15.038C7.38774 15.5255 7.77924 15.9162 8.26074 15.9162H9.20049C9.67974 15.9162 10.0712 15.5277 10.0735 15.0485C10.0705 14.519 10.2775 14.0157 10.6562 13.637C11.0297 13.2635 11.5517 13.0392 12.0737 13.0542C12.4157 13.0625 12.745 13.1547 13.0352 13.3197C13.453 13.559 13.9862 13.4165 14.2277 13.004L14.7257 12.1737C14.8367 11.9825 14.869 11.7425 14.8097 11.5212C14.7512 11.3 14.6042 11.108 14.4062 10.9947C13.9427 10.7277 13.612 10.2972 13.4747 9.78124C13.339 9.27499 13.4132 8.72224 13.678 8.26699C13.8505 7.96699 14.1032 7.71424 14.4062 7.54024C14.8127 7.30249 14.9552 6.77074 14.719 6.35674C14.7092 6.34024 14.7002 6.32299 14.6927 6.30499L14.2532 5.54299C14.014 5.12674 13.4815 4.98349 13.0637 5.22124C12.6122 5.48824 12.0752 5.56474 11.5592 5.42899C11.044 5.29549 10.612 4.96924 10.3427 4.50874C10.1702 4.22074 10.0765 3.88549 10.0735 3.54424C10.0802 3.28774 9.99024 3.05749 9.82674 2.88874C9.66399 2.72074 9.43524 2.62549 9.20049 2.62549ZM8.73391 6.73106C10.1342 6.73106 11.2734 7.87106 11.2734 9.27131C11.2734 10.6716 10.1342 11.8101 8.73391 11.8101C7.33366 11.8101 6.19441 10.6716 6.19441 9.27131C6.19441 7.87106 7.33366 6.73106 8.73391 6.73106ZM8.73391 7.85606C7.95391 7.85606 7.31941 8.49131 7.31941 9.27131C7.31941 10.0513 7.95391 10.6851 8.73391 10.6851C9.51392 10.6851 10.1484 10.0513 10.1484 9.27131C10.1484 8.49131 9.51392 7.85606 8.73391 7.85606Z" fill="#222222"/>
</svg>
