<svg width="18" height="18" viewBox="0 0 18 18" fill="none" xmlns="http://www.w3.org/2000/svg">
<path fill-rule="evenodd" clip-rule="evenodd" d="M6.58012 8.69901C6.59362 8.71101 6.60637 8.72226 6.61912 8.73576C7.42837 9.56526 7.87462 10.664 7.87462 11.8303V14.8183L9.55162 13.9048C9.68362 13.8328 9.76537 13.6918 9.76537 13.5365V11.8213C9.76537 10.6595 10.2071 9.56451 11.0089 8.73951L14.6366 4.88076C14.8714 4.63101 15.0004 4.30326 15.0004 3.95751V3.25551C15.0004 2.90751 14.7259 2.62476 14.3899 2.62476H3.23662C2.89987 2.62476 2.62537 2.90751 2.62537 3.25551V3.95751C2.62537 4.30326 2.75437 4.63101 2.98912 4.88001L6.58012 8.69901ZM7.60987 16.1255C7.45837 16.1255 7.30837 16.085 7.17187 16.004C6.90787 15.8465 6.74962 15.5683 6.74962 15.2593V11.8303C6.74962 10.979 6.43237 10.1773 5.85412 9.56301C5.83687 9.54876 5.81962 9.53301 5.80462 9.51651L2.17012 5.65176C1.73812 5.19276 1.50037 4.59051 1.50037 3.95751V3.25551C1.50037 2.28726 2.27962 1.49976 3.23662 1.49976H14.3899C15.3461 1.49976 16.1254 2.28726 16.1254 3.25551V3.95751C16.1254 4.58976 15.8876 5.19126 15.4571 5.65101L11.8219 9.51651C11.2196 10.1375 10.8904 10.9543 10.8904 11.8213V13.5365C10.8904 14.1035 10.5836 14.6225 10.0901 14.8925L8.01937 16.0205C7.89037 16.0903 7.75012 16.1255 7.60987 16.1255Z" fill="#222222"/>
</svg>
