<svg width="18" height="18" viewBox="0 0 18 18" fill="none" xmlns="http://www.w3.org/2000/svg">
<path d="M2.29285 3.375V6.1875H7.73871V3.375H2.29285ZM2.29285 2.25H7.73871C8.02758 2.25 8.30461 2.36853 8.50887 2.5795C8.71313 2.79048 8.82788 3.07663 8.82788 3.375V6.1875C8.82788 6.48587 8.71313 6.77202 8.50887 6.983C8.30461 7.19397 8.02758 7.3125 7.73871 7.3125H2.29285C2.00398 7.3125 1.72695 7.19397 1.52269 6.983C1.31843 6.77202 1.20368 6.48587 1.20368 6.1875V3.375C1.20368 3.07663 1.31843 2.79048 1.52269 2.5795C1.72695 2.36853 2.00398 2.25 2.29285 2.25Z" fill="#666666"/>
<path d="M10.4617 14.0625H13.7292V9.5625H10.4617V8.4375H13.7292C14.0181 8.4375 14.2951 8.55603 14.4993 8.76701C14.7036 8.97798 14.8184 9.26413 14.8184 9.5625V14.0625C14.8184 14.3609 14.7036 14.647 14.4993 14.858C14.2951 15.069 14.0181 15.1875 13.7292 15.1875H10.4617V14.0625Z" fill="#666666"/>
<path d="M0.659152 11.25H7.83244L6.42414 9.79537L7.19418 9L9.91711 11.8125L7.19418 14.625L6.42414 13.8296L7.83244 12.375H0.659152V11.25Z" fill="#666666"/>
<path d="M11.0063 3.375V6.1875H13.7292V3.375H11.0063ZM11.0063 2.25H13.7292C14.0181 2.25 14.2951 2.36853 14.4993 2.5795C14.7036 2.79048 14.8184 3.07663 14.8184 3.375V6.1875C14.8184 6.48587 14.7036 6.77202 14.4993 6.983C14.2951 7.19397 14.0181 7.3125 13.7292 7.3125H11.0063C10.7174 7.3125 10.4404 7.19397 10.2361 6.983C10.0318 6.77202 9.91709 6.48587 9.91709 6.1875V3.375C9.91709 3.07663 10.0318 2.79048 10.2361 2.5795C10.4404 2.36853 10.7174 2.25 11.0063 2.25Z" fill="#666666"/>
</svg>
