<svg width="16" height="16" viewBox="0 0 16 16" fill="none" xmlns="http://www.w3.org/2000/svg">
<path d="M7.99967 2.6665C9.37854 2.6665 10.6859 3.14489 11.8241 4.03054C12.9623 4.90974 13.9314 6.1962 14.6273 7.8059C14.6793 7.92873 14.6793 8.07095 14.6273 8.18731C13.2354 11.4067 10.7574 13.3332 7.99967 13.3332H7.99317C5.24195 13.3332 2.7639 11.4067 1.37203 8.18731C1.32 8.07095 1.32 7.92873 1.37203 7.8059C2.7639 4.5865 5.24195 2.6665 7.99317 2.6665H7.99967ZM7.99967 5.41398C6.56228 5.41398 5.39805 6.57115 5.39805 7.99984C5.39805 9.42206 6.56228 10.5792 7.99967 10.5792C9.43057 10.5792 10.5948 9.42206 10.5948 7.99984C10.5948 6.57115 9.43057 5.41398 7.99967 5.41398ZM8.00046 6.38225C8.89151 6.38225 9.61997 7.10629 9.61997 7.99841C9.61997 8.88407 8.89151 9.60811 8.00046 9.60811C7.10289 9.60811 6.37444 8.88407 6.37444 7.99841C6.37444 7.88851 6.38745 7.78508 6.40696 7.68165H6.43948C7.16143 7.68165 7.7468 7.11276 7.77281 6.40165C7.84436 6.38872 7.92241 6.38225 8.00046 6.38225Z" fill="#333333" fill-opacity="0.3"/>
</svg>
